<svg width="51" height="25" viewBox="0 0 51 25" fill="none" xmlns="http://www.w3.org/2000/svg">
<path d="M4.72717 3.19806V6.22328V12.5001V21.8019H6.80297L8.90888 21.797L8.9149 16.8261L8.95117 11.8501L10.6826 13.2653C11.4351 13.8806 12.257 14.5483 12.74 14.9371C13.8134 15.8116 13.5386 15.7759 14.5421 14.9647C15.1672 14.4598 16.0227 13.776 16.0227 13.776L18.369 11.87L18.3936 14.0135V17.8362C18.396 19.6793 18.6618 21.8197 22.7123 21.8012C24.9409 21.7902 27.4714 21.7681 27.4714 21.7681C33.9943 21.7357 36.596 21.6173 36.9471 21.5006C38.0159 21.1453 38.9895 20.5327 39.4566 19.7664C40.0454 18.8003 40.1777 18.3269 40.2722 16.846C40.4476 14.0975 39.4584 12.2599 37.3612 11.4373C36.7287 11.1892 36.2486 11.2917 33.0027 11.2245C33.0027 11.2245 29.8332 11.3252 29.3558 10.7593C28.9697 10.3015 28.9706 9.24573 29.3676 8.77512C29.8078 8.25344 30.7224 8.35967 35.0687 8.35967L40.2666 8.36659L40.2632 7.78255C40.2806 6.29603 39.2789 5.18434 37.8398 4.70989C36.3955 4.23372 35.6576 4.35412 32.9112 4.35412C30.1647 4.35412 28.6988 4.37207 27.7751 4.65689C25.9463 5.22089 24.9597 6.46239 24.6419 8.59985C24.3191 10.7715 24.8994 12.8407 26.1286 13.9015C27.2437 14.8638 28.086 15.0379 32.0059 15.117L35.2929 15.1834C36.7177 15.2122 36.7695 17.6563 35.4506 17.6609L27.6089 17.6881C22.5771 17.624 22.5931 18.3509 22.5931 14.1376V9.78896C22.5931 8.75607 22.5902 7.77783 22.5847 6.9099C22.5401 5.98941 22.5741 5.07171 22.5635 4.16206L22.5539 3.32857C21.1024 4.43166 19.3831 5.81364 18.0866 6.86612C15.6955 8.80777 13.6987 10.3963 13.6492 10.3963C13.5997 10.3963 13.2079 10.1011 12.7786 9.74021C12.3493 9.37928 10.3622 7.75956 8.36265 6.14095L4.72717 3.19806Z" fill="black" fill-opacity="0.7"/>
<path d="M44.5211 21.8019C45.4885 21.8019 46.2728 21.0331 46.2728 20.0846C46.2728 19.1361 45.4885 18.3672 44.5211 18.3672C43.5537 18.3672 42.7694 19.1361 42.7694 20.0846C42.7694 21.0331 43.5537 21.8019 44.5211 21.8019Z" fill="#5562FF"/>
</svg>
