<svg width="32" height="33" viewBox="0 0 32 33" fill="none" xmlns="http://www.w3.org/2000/svg">
<path d="M30.7618 25.3231V22.7981C30.7618 21.9579 30.428 21.1522 29.8339 20.5581L21.8484 12.5726C21.6023 12.3265 21.2686 12.1882 20.9206 12.1882C20.5726 12.1882 20.2388 12.3265 19.9927 12.5726L8.7268 23.8385C8.60496 23.9603 8.46031 24.057 8.30111 24.1229C8.14191 24.1889 7.97128 24.2228 7.79896 24.2228C7.62665 24.2228 7.45602 24.1889 7.29682 24.1229C7.13762 24.057 6.99297 23.9603 6.87113 23.8385L1.23816 18.2055V20.7305C1.23816 21.5706 1.57191 22.3764 2.16599 22.9705L6.87113 27.6757C7.11721 27.9218 7.45096 28.06 7.79897 28.06C8.14698 28.06 8.48073 27.9218 8.72681 27.6757L19.9927 16.41C20.2388 16.1639 20.5726 16.0257 20.9206 16.0257C21.2686 16.0257 21.6023 16.1639 21.8484 16.41L30.7618 25.3231Z" fill="black" fill-opacity="0.7"/>
<path d="M6.80929 4.94019C3.69287 4.94019 1.23816 8.31586 1.23816 11.5014V14.7814L4.51856 18.0618V17.4969V12.3164C4.51856 10.0622 5.59395 8.22059 7.79896 8.22059H24.201C26.406 8.22059 27.4814 10.2237 27.4814 12.4776V14.7814L30.7618 18.0618V11.501C30.7618 8.31544 28.2529 4.94019 25.1364 4.94019H6.80929Z" fill="black" fill-opacity="0.7"/>
<path d="M14.8169 9.9502H17.183C17.2311 9.9502 17.2784 9.9625 17.3205 9.98595C17.3625 10.0094 17.3978 10.0432 17.4231 10.0842C17.4484 10.1251 17.4627 10.1718 17.4648 10.2199C17.467 10.268 17.4567 10.3158 17.4352 10.3588L16.2049 12.8109C16.1859 12.849 16.1566 12.8809 16.1204 12.9033C16.0842 12.9256 16.0425 12.9375 16 12.9375C15.9574 12.9375 15.9157 12.9256 15.8795 12.9033C15.8433 12.8809 15.814 12.849 15.795 12.8109L14.5647 10.3588C14.5432 10.3158 14.5329 10.268 14.5351 10.2199C14.5372 10.1718 14.5516 10.1251 14.5768 10.0842C14.6021 10.0432 14.6374 10.0094 14.6794 9.98595C14.7215 9.9625 14.7688 9.9502 14.8169 9.9502Z" fill="#8089FE"/>
<path d="M30.7618 19.1965L27.3062 15.741V16.6049L30.7618 20.0604V19.1965Z" fill="#8089FE"/>
</svg>
